PathFileType	4	(X/Y/Z)	/Users/itak/Documents/Research/Walk-IL/dataset/trc/00001_00004.trc
DataRate	CameraRate	NumFrames	NumMarkers	Units	OrigDataRate	OrigDataStartFrame	OrigNumFrames
100.000000	100.000000	4	53	mm	100.000000	283	378
Frame#	Time	RPSI			LPSI			L3			STRN			T10			C7			CLAV			RBAK			LBAK			LSHO			LUPA			LAEL			LAOL			LWTS			LWPS			LFRA			LIFD			LHPS			LHTS			RSHO			RUPA			RAEL			RAOL			RWTS			RWPS			RFRA			RIFD			RHTS			RHPS			RBHD			LFHD			RFHD			LBHD			LHIP			RHIP			RASI			LASI			LKNE			LTHI			LANK			LTIP			LTOE			LMT1			LMT5			LHEE			RKNE			RTHI			RANK			RTIP			RTOE			RMT1			RMT5			RHEE			
		X1	Y1	Z1	X2	Y2	Z2	X3	Y3	Z3	X4	Y4	Z4	X5	Y5	Z5	X6	Y6	Z6	X7	Y7	Z7	X8	Y8	Z8	X9	Y9	Z9	X10	Y10	Z10	X11	Y11	Z11	X12	Y12	Z12	X13	Y13	Z13	X14	Y14	Z14	X15	Y15	Z15	X16	Y16	Z16	X17	Y17	Z17	X18	Y18	Z18	X19	Y19	Z19	X20	Y20	Z20	X21	Y21	Z21	X22	Y22	Z22	X23	Y23	Z23	X24	Y24	Z24	X25	Y25	Z25	X26	Y26	Z26	X27	Y27	Z27	X28	Y28	Z28	X29	Y29	Z29	X30	Y30	Z30	X31	Y31	Z31	X32	Y32	Z32	X33	Y33	Z33	X34	Y34	Z34	X35	Y35	Z35	X36	Y36	Z36	X37	Y37	Z37	X38	Y38	Z38	X39	Y39	Z39	X40	Y40	Z40	X41	Y41	Z41	X42	Y42	Z42	X43	Y43	Z43	X44	Y44	Z44	X45	Y45	Z45	X46	Y46	Z46	X47	Y47	Z47	X48	Y48	Z48	X49	Y49	Z49	X50	Y50	Z50	X51	Y51	Z51	X52	Y52	Z52	X53	Y53	Z53	

284	2.83	-652.1083374023438	1057.529296875	-217.8490295410156	-663.109375	1055.44970703125	-379.7540588378906	-661.2601928710938	1131.335083007812	-309.4920959472656	-427.2830810546875	1313.406860351562	-314.6908874511719	-678.9007568359375	1275.569580078125	-322.8058776855469	-617.3489990234375	1539.578369140625	-341.9391174316406	-464.9670104980469	1440.6279296875	-325.6939392089844	-681.1903076171875	1408.876708984375	-259.7654418945312	-632.6185913085938	1496.401489257812	-439.2255554199219	-526.2362670898438	1497.381713867188	-506.8047180175781	-555.187255859375	1373.387817382812	-587.0364990234375	-558.9437866210938	1156.709838867188	-613.9351196289062	-624.0387573242188	1143.0712890625	-530.5750122070312	-460.3296508789062	911.7017822265625	-550.1358032226562	-533.1099243164062	890.5305786132812	-596.1997680664062	-540.7517700195312	1041.46142578125	-618.2592163085938	-419.6523742675781	732.7361450195312	-524.9088134765625	-492.1790466308594	804.2786865234375	-591.807373046875	-429.4732360839844	821.2559814453125	-562.1415405273438	-550.2275390625	1527.23291015625	-164.3028717041016	-571.647216796875	1459.404907226562	-90.45054626464844	-625.6024780273438	1197.54541015625	-50.94736480712891	-625.7222900390625	1163.105224609375	-145.1058654785156	-476.6885375976562	948.370361328125	-68.61472320556641	-539.7288208007812	929.4524536132812	-3.258258104324341	-610.2164916992188	1121.196899414062	-30.07389068603516	-442.6710510253906	770.5147705078125	-84.17716979980469	-432.4110107421875	843.5445556640625	-49.36547470092773	-488.509521484375	834.2659912109375	0.5607659220695496	-543.3069458007812	1721.876831054688	-400.2696228027344	-366.4817504882812	1711.316650390625	-272.2841796875	-363.0414428710938	1710.432495117188	-370.9867858886719	-540.8779296875	1717.746704101562	-255.6846313476562	-571.5123901367188	958.7080688476562	-490.4872436523438	-525.6859130859375	957.7760620117188	-118.4650497436523	-433.578125	992.616455078125	-200.2814178466797	-451.6069641113281	1005.624267578125	-435.0671691894531	-488.7156982421875	517.9166870117188	-431.65771484375	-525.4192504882812	651.4591064453125	-471.3182067871094	-615.5474853515625	34.49673080444336	-401.43798828125	-580.1057739257812	280.629150390625	-433.2109985351562	-403.4300842285156	39.60800552368164	-315.4289855957031	-462.9543762207031	49.57859420776367	-306.8629455566406	-490.1532287597656	34.6172981262207	-411.2250061035156	-688.6810302734375	46.48408126831055	-353.6277465820312	-388.8935852050781	535.7285766601562	-150.6120300292969	-465.2512817382812	801.6455078125	-120.2862091064453	-695.5716552734375	130.9649658203125	-160.3399658203125	-448.3229064941406	418.21875	-144.9326171875	-481.5013732910156	46.42175674438477	-178.4824981689453	-536.2883911132812	69.81533050537109	-215.9853363037109	-564.4239501953125	71.73875427246094	-122.4476013183594	-741.8912353515625	150.0193634033203	-210.4757843017578	
285	2.84	-644.7445068359375	1057.294555664062	-217.9175109863281	-656.45556640625	1055.250122070312	-379.7442321777344	-654.320556640625	1131.1806640625	-309.6436767578125	-420.2569885253906	1313.316528320312	-315.4923706054688	-671.9107666015625	1275.38037109375	-323.1607971191406	-610.455322265625	1539.390380859375	-342.572021484375	-458.0169372558594	1440.507446289062	-326.4457702636719	-674.1969604492188	1408.68994140625	-260.2864074707031	-625.7918701171875	1496.200927734375	-439.8214416503906	-519.5164184570312	1497.208740234375	-507.5102844238281	-548.4130859375	1373.2236328125	-587.795166015625	-551.831787109375	1156.531005859375	-614.85693359375	-617.0155029296875	1142.755249023438	-531.5618286132812	-452.1626892089844	912.081787109375	-550.7164916992188	-524.8350830078125	890.4742431640625	-596.8065795898438	-533.193115234375	1041.352416992188	-619.0804443359375	-410.617919921875	733.4882202148438	-524.8856811523438	-483.5366516113281	804.442626953125	-592.2350463867188	-420.8594970703125	821.7928466796875	-562.5660400390625	-543.1351318359375	1527.096923828125	-164.9687652587891	-564.508056640625	1459.27294921875	-91.10771942138672	-618.4325561523438	1197.413208007812	-51.54990386962891	-618.5252075195312	1162.943237304688	-145.6864624023438	-469.2188110351562	948.4304809570312	-69.20502471923828	-532.2186889648438	929.427734375	-3.834607124328613	-602.9649047851562	1121.06787109375	-30.6506233215332	-434.8903198242188	770.6288452148438	-84.70951843261719	-424.7622985839844	843.6929931640625	-49.92301559448242	-480.8164367675781	834.3500366210938	0.008111121132969856	-536.2021484375	1721.693603515625	-401.0802612304688	-359.40673828125	1711.032836914062	-273.0896911621094	-355.9585876464844	1710.116088867188	-371.7875366210938	-533.80712890625	1717.6171875	-256.4905700683594	-565.58251953125	958.5422973632812	-490.8385925292969	-517.5632934570312	957.9658203125	-119.1980667114258	-426.0277099609375	992.7451171875	-201.5357971191406	-445.1922607421875	1005.389465332031	-436.2068786621094	-486.8265686035156	517.2697143554688	-432.5243835449219	-522.2390747070312	651.119140625	-471.8176574707031	-615.5316772460938	34.4961051940918	-401.3779296875	-579.4012451171875	280.6103515625	-433.4872131347656	-403.3405151367188	39.52935028076172	-315.5783386230469	-462.9141235351562	49.65156555175781	-307.0063171386719	-490.1828308105469	34.51136016845703	-411.4094848632812	-688.6088256835938	46.70873260498047	-353.5508422851562	-376.8453369140625	537.63427734375	-152.1498260498047	-455.9105834960938	802.4730834960938	-121.0434494018555	-668.720703125	122.0700225830078	-161.4549255371094	-432.8995361328125	418.5260009765625	-146.3246917724609	-451.2607421875	46.46338653564453	-179.8270874023438	-507.1329650878906	67.51194000244141	-217.4201507568359	-535.2796630859375	68.28176116943359	-123.6959457397461	-716.0687255859375	139.10302734375	-211.5029449462891	
286	2.85	-637.326171875	1057.009887695312	-217.9331665039062	-649.7426147460938	1054.986938476562	-379.6858825683594	-647.3237915039062	1130.934936523438	-309.7376098632812	-413.19921875	1313.146606445312	-316.2550659179688	-664.8675537109375	1275.101196289062	-323.4446105957031	-603.5377807617188	1539.118530273438	-343.1340942382812	-451.0423278808594	1440.302856445312	-327.1497497558594	-667.1685791015625	1408.41357421875	-260.7319030761719	-618.9647216796875	1495.914184570312	-440.3477172851562	-512.7933959960938	1496.954467773438	-508.1593933105469	-541.6470947265625	1372.978271484375	-588.4923706054688	-544.7277221679688	1156.267578125	-615.6904296875	-610.0170288085938	1142.3720703125	-532.46923828125	-444.0740356445312	912.370849609375	-551.1654052734375	-516.6096801757812	890.3351440429688	-597.2977905273438	-525.6533203125	1041.157470703125	-619.7987670898438	-401.6829528808594	734.1380004882812	-524.7350463867188	-474.9667358398438	804.5213012695312	-592.52685546875	-412.3475036621094	822.2111206054688	-562.8261108398438	-536.0036010742188	1526.881958007812	-165.5770721435547	-557.326171875	1459.062377929688	-91.70599365234375	-611.235595703125	1197.207763671875	-52.10208892822266	-611.2847900390625	1162.705078125	-146.2159423828125	-461.8281555175781	948.3500366210938	-69.70909881591797	-524.8153686523438	929.29736328125	-4.338713645935059	-595.7026977539062	1120.8671875	-31.17088317871094	-427.2964477539062	770.57421875	-85.149658203125	-417.2486267089844	843.6724853515625	-50.39534378051758	-473.2752380371094	834.2947998046875	-0.4632394909858704	-529.0654907226562	1721.433959960938	-401.8380737304688	-352.3089904785156	1710.654907226562	-273.83740234375	-348.8480529785156	1709.710571289062	-372.5322570800781	-526.7081298828125	1717.413940429688	-257.2456970214844	-559.6136474609375	958.3076782226562	-491.1469421386719	-509.4095764160156	958.0697021484375	-119.9153747558594	-418.447998046875	992.7684936523438	-202.7507171630859	-438.7364196777344	1005.060974121094	-437.3065490722656	-484.9132995605469	516.5991821289062	-433.269287109375	-519.0021362304688	650.7445068359375	-472.2146301269531	-615.5064086914062	34.53909301757812	-401.2798156738281	-578.6498413085938	280.585693359375	-433.6642456054688	-403.2511596679688	39.42638778686523	-315.6766357421875	-462.8755493164062	49.66232299804688	-307.0997009277344	-490.19970703125	34.43727874755859	-411.5438842773438	-688.527099609375	46.94438171386719	-353.4349670410156	-365.0531311035156	539.4240112304688	-153.6253814697266	-446.693359375	803.17529296875	-121.7754669189453	-641.5223999023438	113.4897766113281	-162.5205993652344	-417.5935974121094	418.8109436035156	-147.7085571289062	-421.1272888183594	46.78707504272461	-181.3898620605469	-477.9666748046875	65.55710601806641	-218.9810028076172	-505.9917297363281	65.11764526367188	-125.0425262451172	-689.8339233398438	128.5623321533203	-212.4570922851562	
287	2.86	-629.8551635742188	1056.670166015625	-217.9063415527344	-642.9627685546875	1054.658081054688	-379.588623046875	-640.2633666992188	1130.596069335938	-309.7837524414062	-406.1062316894531	1312.894775390625	-316.9828796386719	-657.7711181640625	1274.730590820312	-323.6617736816406	-596.5895385742188	1538.763061523438	-343.6207580566406	-444.040283203125	1440.013427734375	-327.807861328125	-660.0955200195312	1408.046508789062	-261.0981140136719	-612.1365356445312	1495.540405273438	-440.8004455566406	-506.066162109375	1496.620361328125	-508.7517700195312	-534.8932495117188	1372.652709960938	-589.124267578125	-537.6333618164062	1155.919067382812	-616.4317016601562	-603.0354614257812	1141.919067382812	-533.2862548828125	-436.0541381835938	912.5690307617188	-551.4885864257812	-508.4341125488281	890.1138916015625	-597.6732788085938	-518.1328125	1040.875	-620.4110107421875	-392.8544921875	734.6690673828125	-524.5057373046875	-466.4600219726562	804.5121459960938	-592.6895141601562	-403.9321594238281	822.509033203125	-562.9325561523438	-528.8231201171875	1526.584716796875	-166.1270446777344	-550.091552734375	1458.771118164062	-92.24345397949219	-604.0093994140625	1196.927612304688	-52.59879684448242	-604.0077514648438	1162.389892578125	-146.6888427734375	-454.5122985839844	948.1292114257812	-70.13439178466797	-517.50439453125	929.0587158203125	-4.770827770233154	-588.4246215820312	1120.593017578125	-31.63035202026367	-419.8836364746094	770.3518676757812	-85.51423645019531	-409.8602905273438	843.483154296875	-50.79762268066406	-465.8702697753906	834.097412109375	-0.8652389645576477	-521.8954467773438	1721.098388671875	-402.5415954589844	-345.1860961914062	1710.182250976562	-274.5244140625	-341.7072448730469	1709.214965820312	-373.2171325683594	-519.576416015625	1717.136474609375	-257.9474792480469	-553.5921020507812	957.9959106445312	-491.4127197265625	-501.2232971191406	958.0889892578125	-120.6048736572266	-410.8428649902344	992.6864624023438	-203.9180297851562	-432.2314758300781	1004.627563476562	-438.361083984375	-482.9726867675781	515.9008178710938	-433.8800048828125	-515.6947021484375	650.331787109375	-472.5016174316406	-615.477294921875	34.63081359863281	-401.1437683105469	-577.851806640625	280.5496215820312	-433.7411804199219	-403.1595458984375	39.29948043823242	-315.7186584472656	-462.8340759277344	49.61544418334961	-307.1395568847656	-490.2025451660156	34.39487075805664	-411.6257629394531	-688.4417114257812	47.18767929077148	-353.278564453125	-353.5138549804688	541.0927124023438	-155.0443878173828	-437.6033935546875	803.7485961914062	-122.4775466918945	-614.0577392578125	105.2864456176758	-163.5462493896484	-402.4103698730469	419.083984375	-149.0881500244141	-391.1636352539062	47.3692626953125	-183.1735687255859	-448.8623046875	63.95378494262695	-220.6602172851562	-476.6351623535156	62.26366806030273	-126.4978332519531	-663.2548828125	118.4922409057617	-213.3486785888672	
